<svg xmlns="http://www.w3.org/2000/svg" width="1600" height="1460" viewBox="0 0 1600 1460">
  <defs>
    <linearGradient id="brand" x1="0" y1="0" x2="1" y2="1">
      <stop offset="0" stop-color="#5833c4"/>
      <stop offset="1" stop-color="#8c63ea"/>
    </linearGradient>
    <linearGradient id="scoreFill" x1="0" y1="0" x2="1" y2="1">
      <stop offset="0" stop-color="#147f78"/>
      <stop offset="1" stop-color="#35aa91"/>
    </linearGradient>
    <linearGradient id="soft" x1="0" y1="0" x2="1" y2="1">
      <stop offset="0" stop-color="#ffffff"/>
      <stop offset="1" stop-color="#f5f1ff"/>
    </linearGradient>
    <filter id="shadow" x="-10%" y="-10%" width="120%" height="130%">
      <feDropShadow dx="0" dy="5" stdDeviation="10" flood-color="#24135a" flood-opacity="0.08"/>
    </filter>
    <style>
      .ui { font-family: Inter, -apple-system, BlinkMacSystemFont, "Segoe UI", Arial, sans-serif; }
      .ink { fill:#1c1730; }
      .copy { fill:#4f4965; }
      .muted { fill:#817a98; }
      .purple { fill:#6840d0; }
      .teal { fill:#147f78; }
      .green { fill:#19775c; }
      .amber { fill:#9a6a0b; }
      .rose { fill:#b13d67; }
      .tiny { font-size:11px; }
      .small { font-size:12.5px; }
      .body { font-size:14px; }
      .label { font-size:13px; font-weight:720; }
      .eyebrow { font-size:10.5px; font-weight:780; letter-spacing:1.2px; }
      .card { fill:#fff; stroke:#e5dff2; stroke-width:1; }
      .divider { stroke:#ece8f6; stroke-width:1; }
    </style>
  </defs>

  <rect width="1600" height="1460" fill="#faf9ff"/>
  <circle cx="1510" cy="-40" r="250" fill="#f0ebff"/>
  <circle cx="45" cy="1380" r="230" fill="#eef8f6"/>

  <g class="ui">
    <!-- Brand and prototype warning -->
    <rect x="0" y="0" width="1600" height="74" fill="#fff"/>
    <line x1="0" y1="74" x2="1600" y2="74" class="divider"/>
    <rect x="34" y="18" width="38" height="38" rx="11" fill="url(#brand)"/>
    <path d="M45 48 L53 26 L61 48 M48 40 H58" fill="none" stroke="#fff" stroke-width="3.2" stroke-linecap="round" stroke-linejoin="round"/>
    <text x="85" y="41" font-size="25" font-weight="800" class="ink">AMIRA</text>
    <text x="85" y="58" class="muted tiny" letter-spacing=".45">EVIDENCE INTELLIGENCE PLATFORM</text>
    <rect x="1127" y="20" width="322" height="34" rx="17" fill="#fff8e8" stroke="#ead49a"/>
    <circle cx="1148" cy="37" r="6" fill="#c88b19"/>
    <text x="1162" y="41" class="amber small" font-weight="720">LAYOUT PROTOTYPE · EXAMPLE SCORES</text>
    <rect x="1461" y="20" width="103" height="34" rx="17" fill="#fff" stroke="#d9cef4"/>
    <text x="1491" y="41" class="purple small" font-weight="720">Share</text>

    <!-- Page title -->
    <text x="54" y="118" font-size="30" font-weight="790" class="ink">What does the evidence show for women?</text>
    <text x="54" y="144" class="copy body">See whether women were included, analyzed and protected — and what important evidence is still missing.</text>

    <!-- Selectors -->
    <rect x="46" y="167" width="1508" height="142" rx="18" class="card" filter="url(#shadow)"/>
    <text x="68" y="190" class="purple eyebrow">CHECK THE EVIDENCE</text>
    <g>
      <text x="68" y="215" class="muted tiny">CONDITION</text>
      <rect x="68" y="223" width="270" height="43" rx="10" fill="#fff" stroke="#dcd2f2"/>
      <circle cx="88" cy="244" r="8" fill="#f0ebfd"/>
      <text x="85" y="248" class="purple tiny">♥</text>
      <text x="105" y="249" class="ink small" font-weight="680">Cardiovascular prevention</text>
      <text x="318" y="249" class="muted small">⌄</text>

      <text x="355" y="215" class="muted tiny">DRUG CLASS</text>
      <rect x="355" y="223" width="260" height="43" rx="10" fill="#fff" stroke="#dcd2f2"/>
      <text x="374" y="249" class="purple small">◆</text>
      <text x="396" y="249" class="ink small" font-weight="680">Statin</text>
      <text x="595" y="249" class="muted small">⌄</text>

      <text x="632" y="215" class="muted tiny">MEDICINE</text>
      <rect x="632" y="223" width="275" height="43" rx="10" fill="#fff" stroke="#dcd2f2"/>
      <text x="651" y="249" class="rose small">●</text>
      <text x="673" y="249" class="ink small" font-weight="680">Atorvastatin (Lipitor)</text>
      <text x="887" y="249" class="muted small">⌄</text>

      <text x="924" y="215" class="muted tiny">LIFE STAGE</text>
      <rect x="924" y="223" width="260" height="43" rx="10" fill="#fff" stroke="#dcd2f2"/>
      <text x="944" y="249" class="purple small">♀</text>
      <text x="967" y="249" class="ink small" font-weight="680">Postmenopause</text>
      <text x="1164" y="249" class="muted small">⌄</text>

      <text x="1201" y="215" class="muted tiny">HORMONE THERAPY</text>
      <rect x="1201" y="223" width="145" height="43" rx="10" fill="#fff" stroke="#dcd2f2"/>
      <text x="1221" y="249" class="ink small" font-weight="680">Any</text>
      <text x="1326" y="249" class="muted small">⌄</text>

      <rect x="1363" y="223" width="166" height="43" rx="10" fill="url(#brand)"/>
      <text x="1394" y="249" font-size="13px" font-weight="760" fill="#fff">Check evidence →</text>
    </g>
    <rect x="68" y="277" width="1461" height="20" rx="7" fill="#f5f2fd"/>
    <text x="82" y="291" class="muted tiny">AMIRA reviews published research. It does not diagnose, prescribe or recommend treatment.</text>

    <!-- Medicine and score -->
    <rect x="46" y="330" width="1508" height="266" rx="18" class="card" filter="url(#shadow)"/>
    <text x="68" y="358" class="purple eyebrow">SELECTED MEDICINE</text>

    <rect x="68" y="374" width="390" height="193" rx="15" fill="url(#soft)" stroke="#e5dff2"/>
    <circle cx="139" cy="457" r="54" fill="#ede7fd"/>
    <g transform="translate(108 432) rotate(-35 31 20)">
      <rect x="0" y="0" width="62" height="30" rx="15" fill="url(#brand)"/>
      <path d="M31 1 V29" stroke="#fff" stroke-opacity=".65"/>
      <path d="M8 8 H25" stroke="#fff" stroke-width="2" stroke-linecap="round" opacity=".7"/>
    </g>
    <text x="211" y="423" font-size="25" font-weight="790" class="ink">Atorvastatin</text>
    <text x="211" y="446" class="muted body">Lipitor · Statin</text>
    <text x="211" y="479" class="muted tiny">USED FOR</text>
    <text x="211" y="501" class="copy small" font-weight="680">Lowering cholesterol and</text>
    <text x="211" y="520" class="copy small" font-weight="680">cardiovascular prevention</text>
    <rect x="211" y="535" width="158" height="22" rx="11" fill="#ece6fb"/>
    <text x="230" y="550" class="purple tiny" font-weight="730">View original sources ↗</text>

    <!-- Gauge -->
    <rect x="478" y="374" width="330" height="193" rx="15" fill="#fff" stroke="#e5dff2"/>
    <text x="502" y="400" class="muted eyebrow">AMIRA EVIDENCE READINESS</text>
    <path d="M536 501 A104 104 0 0 1 744 501" fill="none" stroke="#ece8f6" stroke-width="22" stroke-linecap="round"/>
    <path d="M536 501 A104 104 0 0 1 686 414" fill="none" stroke="url(#scoreFill)" stroke-width="22" stroke-linecap="round"/>
    <text x="591" y="490" font-size="43" font-weight="800" class="teal">68<tspan font-size="19" fill="#817a98">/100</tspan></text>
    <text x="584" y="519" class="teal label">Moderate readiness</text>
    <text x="549" y="543" class="muted tiny">Provisional v0.1 · example value</text>

    <!-- Score breakdown -->
    <rect x="828" y="374" width="703" height="193" rx="15" fill="#fff" stroke="#e5dff2"/>
    <text x="850" y="400" class="muted eyebrow">WHY 68? EVERY POINT HAS A REASON</text>
    <text x="1450" y="400" class="purple tiny" font-weight="730">Full methodology →</text>

    <text x="850" y="429" class="copy small">Included</text>
    <rect x="958" y="419" width="380" height="10" rx="5" fill="#eeeaf5"/>
    <rect x="958" y="419" width="380" height="10" rx="5" fill="#208369"/>
    <text x="1362" y="429" class="green small" font-weight="740">20 / 20</text>
    <text x="1435" y="429" class="muted tiny">Women counted</text>

    <text x="850" y="458" class="copy small">Analyzed</text>
    <rect x="958" y="448" width="380" height="10" rx="5" fill="#eeeaf5"/>
    <rect x="958" y="448" width="342" height="10" rx="5" fill="#208369"/>
    <text x="1362" y="458" class="green small" font-weight="740">18 / 20</text>
    <text x="1435" y="458" class="muted tiny">Sex results</text>

    <text x="850" y="487" class="copy small">Compared</text>
    <rect x="958" y="477" width="380" height="10" rx="5" fill="#eeeaf5"/>
    <rect x="958" y="477" width="190" height="10" rx="5" fill="#d49a27"/>
    <text x="1362" y="487" class="amber small" font-weight="740">10 / 20</text>
    <text x="1435" y="487" class="muted tiny">Unclear</text>

    <text x="850" y="516" class="copy small">Protected</text>
    <rect x="958" y="506" width="380" height="10" rx="5" fill="#eeeaf5"/>
    <rect x="958" y="506" width="228" height="10" rx="5" fill="#d49a27"/>
    <text x="1362" y="516" class="amber small" font-weight="740">12 / 20</text>
    <text x="1435" y="516" class="muted tiny">Safety limited</text>

    <text x="850" y="545" class="copy small">Personalized</text>
    <rect x="958" y="535" width="380" height="10" rx="5" fill="#eeeaf5"/>
    <rect x="958" y="535" width="152" height="10" rx="5" fill="#c64c73"/>
    <text x="1362" y="545" class="rose small" font-weight="740">8 / 20</text>
    <text x="1435" y="545" class="muted tiny">Hormonal gaps</text>

    <rect x="850" y="552" width="652" height="8" rx="4" fill="#f5f2fd"/>
    <text x="1164" y="578" text-anchor="middle" class="muted tiny">This score measures evidence completeness — not whether the medicine is better.</text>

    <!-- Representation row -->
    <rect x="46" y="616" width="1508" height="174" rx="18" class="card"/>
    <text x="68" y="644" class="purple eyebrow">WERE WOMEN LIKE HER REPRESENTED?</text>
    <text x="1444" y="644" class="purple tiny" font-weight="730">See all evidence →</text>

    <g transform="translate(68 660)">
      <rect width="194" height="104" rx="13" fill="#f5fbf8" stroke="#cee9df"/>
      <text x="18" y="25" class="copy small" font-weight="700">Women included</text>
      <rect x="18" y="38" width="56" height="24" rx="12" fill="#dff4eb"/>
      <text x="35" y="54" class="green tiny" font-weight="800">YES</text>
      <text x="18" y="83" class="muted tiny">Women enrolled in</text><text x="18" y="97" class="muted tiny">multiple studies</text>
    </g>
    <g transform="translate(276 660)">
      <rect width="194" height="104" rx="13" fill="#fffbf1" stroke="#f0dfb4"/>
      <text x="18" y="25" class="copy small" font-weight="700">Sex-specific results</text>
      <rect x="18" y="38" width="76" height="24" rx="12" fill="#fff0c9"/>
      <text x="32" y="54" class="amber tiny" font-weight="800">LIMITED</text>
      <text x="18" y="83" class="muted tiny">Reported, but comparison</text><text x="18" y="97" class="muted tiny">is unclear</text>
    </g>
    <g transform="translate(484 660)">
      <rect width="194" height="104" rx="13" fill="#fff8fa" stroke="#efd7e0"/>
      <text x="18" y="25" class="copy small" font-weight="700">Menopause</text>
      <rect x="18" y="38" width="50" height="24" rx="12" fill="#fae3ea"/>
      <text x="34" y="54" class="rose tiny" font-weight="800">NO</text>
      <text x="18" y="83" class="muted tiny">Usually not reported</text><text x="18" y="97" class="muted tiny">in the reviewed studies</text>
    </g>
    <g transform="translate(692 660)">
      <rect width="194" height="104" rx="13" fill="#fff8fa" stroke="#efd7e0"/>
      <text x="18" y="25" class="copy small" font-weight="700">Hormone therapy</text>
      <rect x="18" y="38" width="50" height="24" rx="12" fill="#fae3ea"/>
      <text x="34" y="54" class="rose tiny" font-weight="800">NO</text>
      <text x="18" y="83" class="muted tiny">Use was not considered</text><text x="18" y="97" class="muted tiny">in the reviewed studies</text>
    </g>
    <g transform="translate(900 660)">
      <rect width="194" height="104" rx="13" fill="#fff8fa" stroke="#efd7e0"/>
      <text x="18" y="25" class="copy small" font-weight="700">Pregnancy</text>
      <rect x="18" y="38" width="50" height="24" rx="12" fill="#fae3ea"/>
      <text x="34" y="54" class="rose tiny" font-weight="800">NO</text>
      <text x="18" y="83" class="muted tiny">Pregnant women were</text><text x="18" y="97" class="muted tiny">not represented</text>
    </g>
    <g transform="translate(1108 660)">
      <rect width="194" height="104" rx="13" fill="#fffbf1" stroke="#f0dfb4"/>
      <text x="18" y="25" class="copy small" font-weight="700">Older women</text>
      <rect x="18" y="38" width="76" height="24" rx="12" fill="#fff0c9"/>
      <text x="32" y="54" class="amber tiny" font-weight="800">LIMITED</text>
      <text x="18" y="83" class="muted tiny">Few studies focus on</text><text x="18" y="97" class="muted tiny">women aged 65+</text>
    </g>
    <g transform="translate(1316 660)">
      <rect width="216" height="104" rx="13" fill="#fffbf1" stroke="#f0dfb4"/>
      <text x="18" y="25" class="copy small" font-weight="700">Racial diversity</text>
      <rect x="18" y="38" width="76" height="24" rx="12" fill="#fff0c9"/>
      <text x="32" y="54" class="amber tiny" font-weight="800">LIMITED</text>
      <text x="18" y="83" class="muted tiny">Reporting is incomplete</text><text x="18" y="97" class="muted tiny">across sources</text>
    </g>

    <!-- Compare similar medicines -->
    <rect x="46" y="810" width="1508" height="258" rx="18" class="card" filter="url(#shadow)"/>
    <text x="68" y="840" font-size="18" font-weight="780" class="ink">Compare women’s evidence across similar medicines</text>
    <text x="68" y="862" class="muted small">A higher AMIRA score means more complete women-specific evidence — not a more effective medicine.</text>
    <rect x="1301" y="826" width="225" height="28" rx="14" fill="#f2edfd"/>
    <text x="1321" y="844" class="purple tiny" font-weight="730">Illustrative scores for layout only</text>

    <text x="68" y="895" class="muted eyebrow">MEDICINE</text>
    <text x="425" y="895" class="muted eyebrow">AMIRA SCORE</text>
    <text x="582" y="895" class="muted eyebrow">READINESS</text>
    <text x="764" y="895" class="muted eyebrow">WOMEN</text>
    <text x="884" y="895" class="muted eyebrow">SEX OUTCOMES</text>
    <text x="1043" y="895" class="muted eyebrow">MENOPAUSE</text>
    <text x="1193" y="895" class="muted eyebrow">HT</text>
    <text x="1307" y="895" class="muted eyebrow">BIGGEST GAP</text>
    <line x1="68" y1="908" x2="1530" y2="908" class="divider"/>

    <rect x="62" y="916" width="1474" height="38" rx="9" fill="#f2edfd"/>
    <text x="78" y="940" class="purple small" font-weight="780">Atorvastatin (viewing)</text>
    <text x="425" y="940" class="purple label">68 / 100</text>
    <rect x="575" y="924" width="87" height="22" rx="11" fill="#fff0c9"/>
    <text x="592" y="939" class="amber tiny" font-weight="780">MODERATE</text>
    <circle cx="789" cy="935" r="10" fill="#dff4eb"/><text x="785" y="939" class="green tiny" font-weight="800">✓</text>
    <circle cx="931" cy="935" r="10" fill="#fff0c9"/><text x="927" y="939" class="amber tiny" font-weight="800">~</text>
    <circle cx="1080" cy="935" r="10" fill="#fae3ea"/><text x="1077" y="939" class="rose tiny" font-weight="800">×</text>
    <circle cx="1203" cy="935" r="10" fill="#fae3ea"/><text x="1200" y="939" class="rose tiny" font-weight="800">×</text>
    <text x="1307" y="940" class="copy small">Menopause + HT</text>

    <text x="78" y="978" class="ink small" font-weight="690">Rosuvastatin</text>
    <text x="425" y="978" class="teal label">74 / 100</text>
    <rect x="575" y="962" width="87" height="22" rx="11" fill="#dff4eb"/>
    <text x="589" y="977" class="green tiny" font-weight="780">MODERATE</text>
    <circle cx="789" cy="973" r="10" fill="#dff4eb"/><text x="785" y="977" class="green tiny" font-weight="800">✓</text>
    <circle cx="931" cy="973" r="10" fill="#dff4eb"/><text x="927" y="977" class="green tiny" font-weight="800">✓</text>
    <circle cx="1080" cy="973" r="10" fill="#fae3ea"/><text x="1077" y="977" class="rose tiny" font-weight="800">×</text>
    <circle cx="1203" cy="973" r="10" fill="#fae3ea"/><text x="1200" y="977" class="rose tiny" font-weight="800">×</text>
    <text x="1307" y="978" class="copy small">Hormonal context</text>

    <line x1="68" y1="991" x2="1530" y2="991" class="divider"/>
    <text x="78" y="1018" class="ink small" font-weight="690">Pravastatin</text>
    <text x="425" y="1018" class="amber label">55 / 100</text>
    <rect x="575" y="1002" width="87" height="22" rx="11" fill="#fff0c9"/>
    <text x="589" y="1017" class="amber tiny" font-weight="780">DEVELOPING</text>
    <circle cx="789" cy="1013" r="10" fill="#dff4eb"/><text x="785" y="1017" class="green tiny" font-weight="800">✓</text>
    <circle cx="931" cy="1013" r="10" fill="#fff0c9"/><text x="927" y="1017" class="amber tiny" font-weight="800">~</text>
    <circle cx="1080" cy="1013" r="10" fill="#fae3ea"/><text x="1077" y="1017" class="rose tiny" font-weight="800">×</text>
    <circle cx="1203" cy="1013" r="10" fill="#fae3ea"/><text x="1200" y="1017" class="rose tiny" font-weight="800">×</text>
    <text x="1307" y="1018" class="copy small">Sex-specific safety</text>

    <line x1="68" y1="1031" x2="1530" y2="1031" class="divider"/>
    <text x="78" y="1055" class="ink small" font-weight="690">Simvastatin</text>
    <text x="425" y="1055" class="amber label">48 / 100</text>
    <rect x="575" y="1039" width="87" height="22" rx="11" fill="#fff0c9"/>
    <text x="589" y="1054" class="amber tiny" font-weight="780">DEVELOPING</text>
    <circle cx="789" cy="1050" r="10" fill="#dff4eb"/><text x="785" y="1054" class="green tiny" font-weight="800">✓</text>
    <circle cx="931" cy="1050" r="10" fill="#fff0c9"/><text x="927" y="1054" class="amber tiny" font-weight="800">~</text>
    <circle cx="1080" cy="1050" r="10" fill="#fae3ea"/><text x="1077" y="1054" class="rose tiny" font-weight="800">×</text>
    <circle cx="1203" cy="1050" r="10" fill="#fae3ea"/><text x="1200" y="1054" class="rose tiny" font-weight="800">×</text>
    <text x="1307" y="1055" class="copy small">Menopause evidence</text>

    <!-- Studies -->
    <rect x="46" y="1088" width="1508" height="210" rx="18" class="card"/>
    <text x="68" y="1118" font-size="18" font-weight="780" class="ink">Studies behind this result</text>
    <text x="1380" y="1118" class="purple tiny" font-weight="730">View all studies →</text>
    <rect x="68" y="1135" width="1464" height="34" rx="8" fill="#f3effb"/>
    <text x="82" y="1157" class="muted eyebrow">STUDY</text>
    <text x="318" y="1157" class="muted eyebrow">YEAR</text>
    <text x="405" y="1157" class="muted eyebrow">WOMEN</text>
    <text x="535" y="1157" class="muted eyebrow">SEX RESULTS</text>
    <text x="700" y="1157" class="muted eyebrow">MENOPAUSE</text>
    <text x="842" y="1157" class="muted eyebrow">KEY TAKEAWAY</text>
    <text x="1439" y="1157" class="muted eyebrow">SOURCE</text>

    <text x="82" y="1195" class="ink small" font-weight="690">Study record 01</text><text x="318" y="1195" class="copy small">2004</text><text x="405" y="1195" class="copy small">Reported</text>
    <rect x="535" y="1180" width="64" height="21" rx="10" fill="#fff0c9"/><text x="551" y="1195" class="amber tiny" font-weight="760">LIMITED</text>
    <rect x="700" y="1180" width="43" height="21" rx="10" fill="#fae3ea"/><text x="715" y="1195" class="rose tiny" font-weight="760">NO</text>
    <text x="842" y="1195" class="copy small">Women included; formal comparison unclear.</text><text x="1439" y="1195" class="purple small" font-weight="700">PubMed ↗</text>
    <line x1="68" y1="1208" x2="1532" y2="1208" class="divider"/>

    <text x="82" y="1234" class="ink small" font-weight="690">Study record 02</text><text x="318" y="1234" class="copy small">2008</text><text x="405" y="1234" class="copy small">Reported</text>
    <rect x="535" y="1219" width="49" height="21" rx="10" fill="#dff4eb"/><text x="549" y="1234" class="green tiny" font-weight="760">YES</text>
    <rect x="700" y="1219" width="43" height="21" rx="10" fill="#fae3ea"/><text x="715" y="1234" class="rose tiny" font-weight="760">NO</text>
    <text x="842" y="1234" class="copy small">Women’s outcomes reported; menopause absent.</text><text x="1439" y="1234" class="purple small" font-weight="700">PubMed ↗</text>
    <line x1="68" y1="1247" x2="1532" y2="1247" class="divider"/>

    <text x="82" y="1273" class="ink small" font-weight="690">Class-level synthesis</text><text x="318" y="1273" class="copy small">2021</text><text x="405" y="1273" class="copy small">Multiple</text>
    <rect x="535" y="1258" width="49" height="21" rx="10" fill="#dff4eb"/><text x="549" y="1273" class="green tiny" font-weight="760">YES</text>
    <rect x="700" y="1258" width="43" height="21" rx="10" fill="#fae3ea"/><text x="715" y="1273" class="rose tiny" font-weight="760">NO</text>
    <text x="842" y="1273" class="copy small">Class evidence adds context, not a direct drug comparison.</text><text x="1439" y="1273" class="purple small" font-weight="700">Source ↗</text>

    <!-- Remaining screen sections -->
    <text x="54" y="1334" font-size="19" font-weight="780" class="ink">Continue exploring the evidence</text>
    <text x="54" y="1356" class="muted small">Everything currently available in AMIRA continues below this decision-first summary.</text>

    <g transform="translate(46 1373)">
      <rect width="170" height="48" rx="12" fill="#fff" stroke="#ded6ef"/><text x="23" y="30" class="purple label">Why this result</text>
    </g>
    <g transform="translate(229 1373)">
      <rect width="190" height="48" rx="12" fill="#fff" stroke="#ded6ef"/><text x="22" y="30" class="purple label">Evidence at a glance</text>
    </g>
    <g transform="translate(432 1373)">
      <rect width="178" height="48" rx="12" fill="#fff" stroke="#ded6ef"/><text x="22" y="30" class="purple label">Direct passages</text>
    </g>
    <g transform="translate(623 1373)">
      <rect width="160" height="48" rx="12" fill="#fff" stroke="#ded6ef"/><text x="24" y="30" class="purple label">Research map</text>
    </g>
    <g transform="translate(796 1373)">
      <rect width="160" height="48" rx="12" fill="#fff" stroke="#ded6ef"/><text x="24" y="30" class="purple label">Open dataset</text>
    </g>
    <g transform="translate(969 1373)">
      <rect width="180" height="48" rx="12" fill="#fff" stroke="#ded6ef"/><text x="22" y="30" class="purple label">Open benchmark</text>
    </g>
    <g transform="translate(1162 1373)">
      <rect width="154" height="48" rx="12" fill="#fff" stroke="#ded6ef"/><text x="27" y="30" class="purple label">Methodology</text>
    </g>
    <g transform="translate(1329 1373)">
      <rect width="225" height="48" rx="12" fill="#f3effc" stroke="#d8cdf2"/><text x="22" y="30" class="purple label">Download CSV / JSONL</text>
    </g>
  </g>
</svg>
