<svg xmlns="http://www.w3.org/2000/svg" width="1600" height="1320" viewBox="0 0 1600 1320">
  <defs>
    <linearGradient id="dBrand" x1="0" y1="0" x2="1" y2="1">
      <stop offset="0" stop-color="#5630ad"/>
      <stop offset="1" stop-color="#9b7bea"/>
    </linearGradient>
    <linearGradient id="dHero" x1="0" y1="0" x2="1" y2="1">
      <stop offset="0" stop-color="#ffffff"/>
      <stop offset="1" stop-color="#f5f2fe"/>
    </linearGradient>
    <style>
      .ui { font-family: Inter, -apple-system, BlinkMacSystemFont, "Segoe UI", Arial, sans-serif; }
      .ink { fill: #1b1630; }
      .copy { fill: #4a4463; }
      .muted { fill: #837c9c; }
      .purple { fill: #6a3fd0; }
      .green { fill: #1f7a5f; }
      .teal { fill: #2f8f83; }
      .amber { fill: #8a6212; }
      .red { fill: #a63d63; }
      .eyebrow { font-size: 10.5px; font-weight: 760; letter-spacing: 1.15px; }
      .tiny { font-size: 10.5px; }
      .small { font-size: 12px; }
      .body { font-size: 14px; }
      .label { font-size: 13px; font-weight: 720; }
      .card { fill: #ffffff; stroke: #e5dff2; stroke-width: 1; }
    </style>
  </defs>

  <rect width="1600" height="1320" fill="#faf9ff"/>
  <circle cx="1540" cy="40" r="220" fill="#f0ebfd"/>
  <circle cx="230" cy="1320" r="230" fill="#eef7f5"/>

  <!-- Sidebar -->
  <rect x="0" y="0" width="210" height="1320" fill="#ffffff"/>
  <line x1="210" y1="0" x2="210" y2="1320" stroke="#ece8f8"/>
  <g class="ui">
    <rect x="24" y="25" width="42" height="42" rx="12" fill="url(#dBrand)"/>
    <path d="M35 55 L45 34 L55 55 M39 48 H51" fill="none" stroke="#fff" stroke-width="3.4" stroke-linecap="round" stroke-linejoin="round"/>
    <text x="78" y="45" font-size="25" font-weight="790" class="ink">AMIRA</text>
    <text x="78" y="62" font-size="9.5" class="muted" letter-spacing=".35">EVIDENCE INTELLIGENCE</text>

    <rect x="18" y="104" width="174" height="42" rx="11" fill="#ece5fc"/>
    <circle cx="39" cy="125" r="9" fill="none" stroke="#6a3fd0" stroke-width="2"/>
    <line x1="46" y1="132" x2="52" y2="138" stroke="#6a3fd0" stroke-width="2" stroke-linecap="round"/>
    <text x="61" y="130" class="purple label">Check Evidence</text>

    <text x="28" y="184" class="copy label">↔  Compare Evidence</text>
    <text x="28" y="229" class="copy label">◎  Research Map</text>
    <text x="28" y="274" class="copy label">▤  Open Dataset</text>
    <text x="28" y="319" class="copy label">◇  Open Benchmark</text>
    <text x="28" y="364" class="copy label">≋  Methodology</text>

    <rect x="18" y="1135" width="174" height="142" rx="14" fill="#f5f2fe" stroke="#dcd0f8"/>
    <circle cx="42" cy="1163" r="12" fill="#ffffff" stroke="#7c53e0"/>
    <path d="M37 1163 L41 1167 L48 1159" fill="none" stroke="#6a3fd0" stroke-width="2" stroke-linecap="round"/>
    <text x="62" y="1167" class="purple label">Evidence you can trace</text>
    <text x="32" y="1197" class="copy small">Every positive finding links</text>
    <text x="32" y="1216" class="copy small">to an original source.</text>
    <text x="32" y="1247" class="amber small" font-weight="700">Human review pending</text>
  </g>

  <!-- Main header -->
  <g class="ui">
    <text x="240" y="38" font-size="29" font-weight="770" class="ink">What does the evidence say for women like my mother?</text>
    <text x="240" y="62" class="copy body">One page: trust, applicability, findings, gaps, sources, and the next evidence to review.</text>
    <rect x="1398" y="22" width="172" height="34" rx="17" fill="#ffffff" stroke="#dcd0f8"/>
    <circle cx="1420" cy="39" r="5" fill="#2f8f83"/>
    <text x="1433" y="43" class="copy small" font-weight="680">Dataset v3.0.0</text>

    <!-- Search context -->
    <rect x="240" y="80" width="1330" height="67" rx="14" class="card"/>
    <text x="261" y="100" class="muted tiny">CONDITION</text>
    <text x="261" y="126" class="ink label">Heart failure</text>
    <line x1="440" y1="94" x2="440" y2="133" stroke="#ece8f8"/>
    <text x="462" y="100" class="muted tiny">MEDICINE</text>
    <text x="462" y="126" class="ink label">Digoxin</text>
    <line x1="670" y1="94" x2="670" y2="133" stroke="#ece8f8"/>
    <text x="692" y="100" class="muted tiny">LIFE STAGE</text>
    <text x="692" y="126" class="ink label">Postmenopause</text>
    <line x1="915" y1="94" x2="915" y2="133" stroke="#ece8f8"/>
    <text x="937" y="100" class="muted tiny">HORMONE THERAPY</text>
    <text x="937" y="126" class="ink label">Not specified</text>
    <rect x="1355" y="94" width="193" height="39" rx="10" fill="url(#dBrand)"/>
    <text x="1395" y="119" font-size="13" font-weight="740" fill="#fff">Check evidence →</text>

    <!-- Hero: answer -->
    <rect x="240" y="163" width="555" height="188" rx="17" fill="url(#dHero)" stroke="#dcd0f8"/>
    <rect x="262" y="184" width="151" height="22" rx="11" fill="#ece5fc"/>
    <circle cx="276" cy="195" r="3.5" fill="#6a3fd0"/>
    <text x="287" y="199" class="purple eyebrow">10-SECOND ANSWER</text>
    <text x="262" y="235" font-size="23" font-weight="770" class="ink">Historical warning signal. New evidence differs.</text>
    <text x="262" y="267" class="copy" font-size="13.3">In a later analysis, nearly 1 in 3 women assigned Digoxin died</text>
    <text x="262" y="289" class="copy" font-size="13.3">during follow-up. New low-dose evidence found no clear difference</text>
    <text x="262" y="311" class="copy" font-size="13.3">between women and men. Menopause and hormone therapy were not reported.</text>
    <rect x="262" y="321" width="506" height="20" rx="7" fill="#fff8e9"/>
    <text x="275" y="335" font-size="10.7" fill="#705013">AMIRA does not determine whether Digoxin is right for an individual patient.</text>

    <!-- Hero: maturity -->
    <rect x="809" y="163" width="190" height="188" rx="17" class="card"/>
    <text x="827" y="188" class="muted eyebrow">EVIDENCE MATURITY</text>
    <text x="827" y="241" font-size="47" font-weight="790" class="purple">2<tspan font-size="22" fill="#837c9c"> / 5</tspan></text>
    <text x="827" y="268" class="ink label">Women analyzed</text>
    <g transform="translate(827 286)">
      <rect width="25" height="7" rx="3.5" fill="#6a3fd0"/>
      <rect x="31" width="25" height="7" rx="3.5" fill="#6a3fd0"/>
      <rect x="62" width="25" height="7" rx="3.5" fill="#e5e0ee"/>
      <rect x="93" width="25" height="7" rx="3.5" fill="#e5e0ee"/>
      <rect x="124" width="25" height="7" rx="3.5" fill="#e5e0ee"/>
    </g>
    <text x="827" y="318" class="muted tiny">Reporting maturity</text>
    <text x="827" y="335" class="muted tiny">Not a medicine rating</text>

    <!-- Hero: applicability -->
    <rect x="1013" y="163" width="285" height="188" rx="17" class="card"/>
    <text x="1033" y="188" class="muted eyebrow">DOES IT APPLY TO HER?</text>
    <text x="1033" y="222" font-size="22" font-weight="760" class="amber">Cannot confirm</text>
    <circle cx="1041" cy="246" r="7" fill="#e9f6f1"/>
    <text x="1038" y="250" class="green tiny" font-weight="800">✓</text>
    <text x="1055" y="250" class="copy small">Women represented</text>
    <circle cx="1041" cy="270" r="7" fill="#fbf4e6"/>
    <text x="1039" y="274" class="amber tiny" font-weight="800">~</text>
    <text x="1055" y="274" class="copy small">Age 65 within eligibility range</text>
    <circle cx="1041" cy="294" r="7" fill="#f9edf1"/>
    <text x="1039" y="298" class="red tiny" font-weight="800">?</text>
    <text x="1055" y="298" class="copy small">Postmenopause not reported</text>
    <circle cx="1041" cy="318" r="7" fill="#f9edf1"/>
    <text x="1039" y="322" class="red tiny" font-weight="800">?</text>
    <text x="1055" y="322" class="copy small">Hormone therapy not reported</text>
    <text x="1033" y="341" class="muted tiny">No patient-match percentage is inferred.</text>

    <!-- Hero: trust -->
    <rect x="1312" y="163" width="258" height="188" rx="17" class="card"/>
    <text x="1332" y="188" class="muted eyebrow">CAN I TRUST IT?</text>
    <text x="1332" y="220" font-size="22" font-weight="760" class="teal">Source-linked</text>
    <text x="1332" y="245" class="copy small">2 randomized trials</text>
    <text x="1332" y="266" class="copy small">4 original source records</text>
    <text x="1332" y="287" class="copy small">18 structured assertions</text>
    <line x1="1332" y1="300" x2="1548" y2="300" stroke="#ece8f8"/>
    <text x="1332" y="320" class="green tiny" font-weight="720">Key findings source-verified</text>
    <text x="1332" y="338" class="amber tiny" font-weight="720">Full human review pending</text>

    <!-- Clinical snapshot -->
    <rect x="240" y="365" width="1330" height="75" rx="15" class="card"/>
    <text x="260" y="389" class="purple eyebrow">CLINICAL SNAPSHOT</text>
    <line x1="392" y1="379" x2="392" y2="427" stroke="#ece8f8"/>
    <text x="414" y="389" class="muted tiny">MEDICINE</text>
    <text x="414" y="416" class="ink label">Digoxin</text>
    <line x1="550" y1="379" x2="550" y2="427" stroke="#ece8f8"/>
    <text x="572" y="389" class="muted tiny">STUDIED CONTEXT</text>
    <text x="572" y="416" class="ink label">Trial-specific heart failure populations</text>
    <line x1="859" y1="379" x2="859" y2="427" stroke="#ece8f8"/>
    <text x="881" y="389" class="muted tiny">EFFECTIVENESS</text>
    <text x="881" y="416" class="red label">Conflicting sex-specific results</text>
    <line x1="1110" y1="379" x2="1110" y2="427" stroke="#ece8f8"/>
    <text x="1132" y="389" class="muted tiny">SAFETY</text>
    <text x="1132" y="410" class="amber small" font-weight="700">Discussed in women;</text>
    <text x="1132" y="427" class="amber small" font-weight="700">no formal comparison</text>
    <line x1="1356" y1="379" x2="1356" y2="427" stroke="#ece8f8"/>
    <text x="1378" y="389" class="muted tiny">REVIEWED</text>
    <text x="1378" y="416" class="ink label">2 RCTs · 4 sources</text>

    <!-- Evidence journey -->
    <rect x="240" y="455" width="1330" height="132" rx="17" class="card"/>
    <text x="260" y="480" class="purple eyebrow">EVIDENCE MATURITY JOURNEY — FROM INCLUDED TO PERSONALIZED</text>
    <line x1="327" y1="519" x2="1480" y2="519" stroke="#ddd5f1" stroke-width="4" stroke-linecap="round"/>

    <circle cx="327" cy="519" r="15" fill="#1f7a5f"/>
    <text x="322.5" y="524" font-size="13" font-weight="800" fill="#fff">1</text>
    <text x="279" y="552" class="green label">Included ✓</text>
    <text x="269" y="572" class="muted tiny">Women enrolled</text>

    <circle cx="615" cy="519" r="15" fill="#1f7a5f"/>
    <text x="610.5" y="524" font-size="13" font-weight="800" fill="#fff">2</text>
    <text x="566" y="552" class="green label">Analyzed ✓</text>
    <text x="552" y="572" class="muted tiny">Results reported by sex</text>

    <circle cx="903" cy="519" r="15" fill="#a63d63"/>
    <text x="898.5" y="524" font-size="13" font-weight="800" fill="#fff">3</text>
    <text x="840" y="552" class="red label">Life-stage aware ×</text>
    <text x="850" y="572" class="muted tiny">Menopause missing</text>

    <circle cx="1191" cy="519" r="15" fill="#a63d63"/>
    <text x="1186.5" y="524" font-size="13" font-weight="800" fill="#fff">4</text>
    <text x="1132" y="552" class="red label">Hormone-aware ×</text>
    <text x="1135" y="572" class="muted tiny">Therapy use missing</text>

    <circle cx="1480" cy="519" r="15" fill="#a63d63"/>
    <text x="1475.5" y="524" font-size="13" font-weight="800" fill="#fff">5</text>
    <text x="1431" y="552" class="red label">Personalized ×</text>
    <text x="1397" y="572" class="muted tiny">No joint life-stage analysis</text>

    <!-- Known and unknown -->
    <rect x="240" y="602" width="650" height="258" rx="17" class="card"/>
    <text x="260" y="628" class="purple eyebrow">WHAT WE KNOW — AND WHAT WE DO NOT</text>
    <rect x="260" y="643" width="295" height="117" rx="12" fill="#f4faf7" stroke="#cfe9e0"/>
    <text x="278" y="667" class="green label">Known</text>
    <circle cx="282" cy="690" r="4" fill="#1f7a5f"/>
    <text x="294" y="694" class="copy small">Historical post hoc signal: 33.1% vs 28.9%</text>
    <circle cx="282" cy="714" r="4" fill="#1f7a5f"/>
    <text x="294" y="718" class="copy small">Adjusted sex interaction P=0.014</text>
    <circle cx="282" cy="738" r="4" fill="#1f7a5f"/>
    <text x="294" y="742" class="copy small">New low-dose trial included 284 women</text>

    <rect x="571" y="643" width="299" height="117" rx="12" fill="#fffbfc" stroke="#f0d9e2"/>
    <text x="589" y="667" class="red label">Unknown</text>
    <circle cx="593" cy="690" r="4" fill="#a63d63"/>
    <text x="605" y="694" class="copy small">Whether findings apply after menopause</text>
    <circle cx="593" cy="714" r="4" fill="#a63d63"/>
    <text x="605" y="718" class="copy small">Whether hormone therapy changes outcomes</text>
    <circle cx="593" cy="738" r="4" fill="#a63d63"/>
    <text x="605" y="742" class="copy small">Formal between-sex safety comparison</text>

    <text x="260" y="788" class="muted eyebrow">POPULATION AND OUTCOME COVERAGE</text>
    <text x="260" y="812" class="copy tiny">Women included</text>
    <rect x="342" y="804" width="70" height="8" rx="4" fill="#1f7a5f"/>
    <text x="420" y="812" class="green tiny">2/2</text>
    <text x="458" y="812" class="copy tiny">Effectiveness by sex</text>
    <rect x="562" y="804" width="70" height="8" rx="4" fill="#1f7a5f"/>
    <text x="640" y="812" class="green tiny">2/2</text>
    <text x="678" y="812" class="copy tiny">Safety</text>
    <rect x="720" y="804" width="35" height="8" rx="4" fill="#b07d1a"/>
    <rect x="755" y="804" width="35" height="8" rx="4" fill="#e5e0ee"/>
    <text x="798" y="812" class="amber tiny">1/2</text>
    <text x="260" y="840" class="copy tiny">Menopause</text>
    <rect x="325" y="832" width="70" height="8" rx="4" fill="#eadfe4"/>
    <text x="403" y="840" class="red tiny">0/2</text>
    <text x="458" y="840" class="copy tiny">Hormone therapy</text>
    <rect x="548" y="832" width="70" height="8" rx="4" fill="#eadfe4"/>
    <text x="626" y="840" class="red tiny">0/2</text>
    <text x="678" y="840" class="copy tiny">Pregnancy</text>
    <rect x="738" y="832" width="70" height="8" rx="4" fill="#eadfe4"/>
    <text x="816" y="840" class="red tiny">0/2</text>

    <!-- Decision support -->
    <rect x="905" y="602" width="665" height="258" rx="17" class="card"/>
    <text x="925" y="628" class="purple eyebrow">WHAT SHOULD HAPPEN NEXT?</text>
    <text x="925" y="654" class="ink label">Clinical question</text>
    <text x="1395" y="654" class="ink label">Evidence answer</text>
    <line x1="925" y1="665" x2="1550" y2="665" stroke="#ece8f8"/>
    <text x="925" y="690" class="copy small">Does this apply specifically to a postmenopausal woman?</text>
    <rect x="1404" y="676" width="135" height="24" rx="12" fill="#f9edf1"/>
    <text x="1422" y="692" class="red small" font-weight="700">Cannot determine</text>
    <line x1="925" y1="708" x2="1550" y2="708" stroke="#ece8f8"/>
    <text x="925" y="733" class="copy small">Is there a women-specific signal worth reviewing?</text>
    <rect x="1404" y="719" width="135" height="24" rx="12" fill="#fbf4e6"/>
    <text x="1421" y="735" class="amber small" font-weight="700">Yes — historical</text>
    <line x1="925" y1="751" x2="1550" y2="751" stroke="#ece8f8"/>
    <text x="925" y="776" class="copy small">Does the contemporary low-dose evidence settle it?</text>
    <rect x="1404" y="762" width="135" height="24" rx="12" fill="#fbf4e6"/>
    <text x="1432" y="778" class="amber small" font-weight="700">No — mixed</text>
    <line x1="925" y1="794" x2="1550" y2="794" stroke="#ece8f8"/>
    <text x="925" y="819" class="copy small">Should AMIRA start, stop, or choose the medicine?</text>
    <rect x="1404" y="805" width="135" height="24" rx="12" fill="#f5f2fe"/>
    <text x="1425" y="821" class="purple small" font-weight="700">No — clinician</text>
    <text x="925" y="847" class="muted tiny">Next review: historical signal · contemporary dose/concentration · patient-specific guidance</text>

    <!-- Timeline / studies -->
    <rect x="240" y="875" width="800" height="225" rx="17" class="card"/>
    <text x="260" y="901" class="purple eyebrow">EVIDENCE TIMELINE — WHY THE ANSWER IS MIXED</text>
    <line x1="302" y1="946" x2="976" y2="946" stroke="#dcd0f8" stroke-width="3" stroke-linecap="round"/>
    <circle cx="302" cy="946" r="10" fill="#837c9c"/>
    <circle cx="518" cy="946" r="10" fill="#b8446a"/>
    <circle cx="734" cy="946" r="10" fill="#2f8f83"/>
    <circle cx="976" cy="946" r="10" fill="#a63d63"/>
    <text x="278" y="929" class="muted label">1997</text>
    <text x="494" y="929" class="red label">2002</text>
    <text x="710" y="929" class="teal label">2026</text>
    <text x="930" y="929" class="red label">Still missing</text>
    <text x="270" y="970" class="copy tiny">DIG overall report</text>
    <text x="270" y="987" class="muted tiny">6,800 participants</text>
    <text x="475" y="970" class="copy tiny">Women-specific post hoc</text>
    <text x="475" y="987" class="muted tiny">mortality signal</text>
    <text x="688" y="970" class="copy tiny">DECISION low-dose RCT</text>
    <text x="688" y="987" class="muted tiny">1,001 total · 284 women</text>
    <text x="920" y="970" class="copy tiny">Menopause + HT</text>
    <text x="920" y="987" class="muted tiny">0 of 2 studies</text>

    <rect x="260" y="1014" width="365" height="64" rx="11" fill="#fffaf4" stroke="#f0dfb9"/>
    <text x="277" y="1037" class="amber label">Historical DIG analysis</text>
    <text x="277" y="1058" class="copy tiny">33.1% vs 28.9% · adjusted interaction P=0.014</text>
    <text x="570" y="1058" class="purple tiny" font-weight="700">Source ↗</text>
    <rect x="643" y="1014" width="377" height="64" rx="11" fill="#f4faf7" stroke="#cfe9e0"/>
    <text x="660" y="1037" class="teal label">Contemporary DECISION trial</text>
    <text x="660" y="1058" class="copy tiny">Target 0.5–0.9 ng/mL · sex interaction P=0.61</text>
    <text x="965" y="1058" class="purple tiny" font-weight="700">Source ↗</text>

    <!-- Explain maturity / research need -->
    <rect x="1055" y="875" width="515" height="225" rx="17" class="card"/>
    <text x="1075" y="901" class="purple eyebrow">EXPLAIN THIS MATURITY — AND WHAT ADVANCES IT</text>
    <text x="1075" y="930" class="green small" font-weight="720">✓ Stage 1: Women included</text>
    <text x="1075" y="953" class="green small" font-weight="720">✓ Stage 2: Women analyzed</text>
    <text x="1075" y="976" class="red small" font-weight="720">× Stage 3: Menopause or life stage reported</text>
    <text x="1075" y="999" class="red small" font-weight="720">× Stage 4: Hormone-therapy context reported</text>
    <text x="1075" y="1022" class="red small" font-weight="720">× Stage 5: Outcomes jointly stratified</text>
    <rect x="1075" y="1038" width="475" height="45" rx="10" fill="#f9edf1"/>
    <text x="1092" y="1057" class="red tiny" font-weight="760">HIGHEST UNRESOLVED QUESTION</text>
    <text x="1092" y="1074" class="copy small">Does response differ by menopause or hormone-therapy context?</text>
    <text x="1370" y="1093" class="muted tiny">Basis: missing in 2 of 2 reviewed trials</text>

    <!-- Provenance -->
    <rect x="240" y="1115" width="850" height="154" rx="17" fill="#1b1630"/>
    <text x="262" y="1142" font-size="11" font-weight="760" fill="#c3aef0" letter-spacing="1.2">BEHIND THIS ANSWER — THE DASHBOARD IS ONLY THE FRONT DOOR</text>
    <text x="262" y="1179" font-size="23" font-weight="760" fill="#fff">2 RCTs</text>
    <text x="380" y="1179" font-size="23" font-weight="760" fill="#fff">4 sources</text>
    <text x="520" y="1179" font-size="23" font-weight="760" fill="#fff">18 assertions</text>
    <text x="690" y="1179" font-size="23" font-weight="760" fill="#fff">3 findings</text>
    <text x="262" y="1202" class="tiny" fill="#c9c4d8">This Digoxin answer</text>
    <text x="262" y="1232" class="small" fill="#c9c4d8">Full corpus: 7 randomized studies · 15 sources · 58 assertions · 30 benchmark passages</text>
    <text x="262" y="1251" class="tiny" fill="#a9a3ba">Benchmark evaluation and human review pending · Source cutoff 18 July 2026</text>
    <rect x="846" y="1152" width="104" height="35" rx="9" fill="#6a3fd0"/>
    <text x="866" y="1175" font-size="11.5" font-weight="720" fill="#fff">Open record</text>
    <rect x="846" y="1197" width="104" height="35" rx="9" fill="#31294d" stroke="#746a91"/>
    <text x="863" y="1220" font-size="11.5" font-weight="720" fill="#fff">Methodology</text>
    <text x="968" y="1175" class="tiny" fill="#c3aef0">Research Map ↗</text>
    <text x="968" y="1218" class="tiny" fill="#c3aef0">Open Dataset ↗</text>

    <!-- Other evidence path -->
    <rect x="1105" y="1115" width="465" height="154" rx="17" class="card"/>
    <text x="1125" y="1142" class="purple eyebrow">ANOTHER EVIDENCE PATH TO REVIEW</text>
    <text x="1125" y="1174" font-size="20" font-weight="760" class="ink">Dapagliflozin</text>
    <text x="1125" y="1198" class="copy small">DAPA-HF included 1,109 women. Researchers did not</text>
    <text x="1125" y="1217" class="copy small">find a statistically significant sex difference in effect.</text>
    <text x="1125" y="1242" class="muted tiny">Not directly compared with Digoxin · Not a prescribing recommendation</text>
    <text x="1418" y="1260" class="purple small" font-weight="720">Review evidence →</text>

    <text x="240" y="1300" class="muted tiny">AMIRA structures evidence for review. It does not diagnose, prescribe, rank clinical effectiveness, or replace patient-specific medical judgment.</text>
    <text x="1444" y="1300" class="purple tiny" font-weight="720">Every claim → source</text>
  </g>
</svg>
